<svg width="32" height="32" viewBox="0 0 32 32" fill="none" xmlns="http://www.w3.org/2000/svg">
<g id="action-print">
<g id="primaryFill">
<path d="M24 13C24 13.5523 23.5523 14 23 14C22.4477 14 22 13.5523 22 13C22 12.4477 22.4477 12 23 12C23.5523 12 24 12.4477 24 13Z" fill="#373F51"/>
<path d="M19 14C19.5523 14 20 13.5523 20 13C20 12.4477 19.5523 12 19 12C18.4477 12 18 12.4477 18 13C18 13.5523 18.4477 14 19 14Z" fill="#373F51"/>
<path d="M10 21C10 20.4477 10.4477 20 11 20H21C21.5523 20 22 20.4477 22 21C22 21.5523 21.5523 22 21 22H11C10.4477 22 10 21.5523 10 21Z" fill="#373F51"/>
<path d="M11 24C10.4477 24 10 24.4477 10 25C10 25.5523 10.4477 26 11 26H21C21.5523 26 22 25.5523 22 25C22 24.4477 21.5523 24 21 24H11Z" fill="#373F51"/>
<path fill-rule="evenodd" clip-rule="evenodd" d="M6 4C6 2.89543 6.89543 2 8 2H24C25.1046 2 26 2.89543 26 4V8C28.2091 8 30 9.79086 30 12V22C30 23.1046 29.1046 24 28 24H26V28C26 29.1046 25.1046 30 24 30H8C6.89543 30 6 29.1046 6 28V24H4C2.89543 24 2 23.1046 2 22V12C2 9.79086 3.79086 8 6 8V4ZM6 22V18C6 16.8954 6.89543 16 8 16H24C25.1046 16 26 16.8954 26 18V22H28V12C28 10.8954 27.1046 10 26 10H6C4.89543 10 4 10.8954 4 12V22H6ZM24 4V8H8V4H24ZM8 18H24V28H8V18Z" fill="#373F51"/>
</g>
</g>
</svg>
