<svg width="32" height="32" viewBox="0 0 32 32" fill="none" xmlns="http://www.w3.org/2000/svg">
<g id="applet-administration">
<g id="primaryFill">
<path fill-rule="evenodd" clip-rule="evenodd" d="M4 6C4 3.79086 5.79086 2 8 2H20C22.2091 2 24 3.79086 24 6C26.2091 6 28 7.79086 28 10V19C28 19.5523 27.5523 20 27 20C26.4477 20 26 19.5523 26 19V10C26 8.89543 25.1046 8 24 8V19C24 19.5523 23.5523 20 23 20C22.4477 20 22 19.5523 22 19V6C22 4.89543 21.1046 4 20 4H8C6.89543 4 6 4.89543 6 6V28H8V23C8 22.4477 8.44772 22 9 22H19C19.5523 22 20 22.4477 20 23V29C20 29.5523 19.5523 30 19 30H5C4.44772 30 4 29.5523 4 29V6ZM10 24H13V28H10V24ZM15 24V28H18V24H15Z" fill="#3D424D"/>
<path fill-rule="evenodd" clip-rule="evenodd" d="M19 14C19.5523 14 20 14.4477 20 15V19C20 19.5523 19.5523 20 19 20H9C8.44772 20 8 19.5523 8 19V15C8 14.4477 8.44772 14 9 14H19ZM13 18H10V16H13V18ZM15 18H18V16H15V18Z" fill="#3D424D"/>
<path fill-rule="evenodd" clip-rule="evenodd" d="M9 12H19C19.5523 12 20 11.5523 20 11V7C20 6.44772 19.5523 6 19 6H9C8.44772 6 8 6.44772 8 7V11C8 11.5523 8.44772 12 9 12ZM10 8H13V10H10V8ZM18 8H15V10H18V8Z" fill="#3D424D"/>
<path fill-rule="evenodd" clip-rule="evenodd" d="M27.7841 22C27.9441 22 28.0759 22.1255 28.0837 22.2853L28.1616 23.8719C28.5211 24.0041 28.8515 24.1959 29.1408 24.4353L30.5633 23.7074C30.7054 23.6347 30.8794 23.6859 30.9595 23.8239L31.7423 25.1733C31.8228 25.3121 31.7798 25.4897 31.6448 25.5763L30.3028 26.4377C30.334 26.6205 30.3502 26.8084 30.3502 27C30.3502 27.1919 30.3339 27.3801 30.3026 27.5631L31.6445 28.4229C31.7797 28.5095 31.8227 28.6872 31.7421 28.826L30.9594 30.1753C30.8794 30.3133 30.7054 30.3645 30.5634 30.2919L29.1408 29.5647C28.8515 29.8041 28.5211 29.9959 28.1616 30.1281L28.0837 31.7147C28.0759 31.8745 27.9441 32 27.7841 32H26.2171C26.0572 32 25.9254 31.8746 25.9175 31.7148L25.8389 30.1281C25.4793 29.9958 25.1487 29.8039 24.8594 29.5643L23.4371 30.2911C23.2951 30.3637 23.1211 30.3125 23.0411 30.1745L22.2591 28.8267C22.1786 28.6879 22.2216 28.5103 22.3566 28.4237L23.6979 27.5631C23.6666 27.3801 23.6503 27.1919 23.6503 27C23.6503 26.8084 23.6666 26.6205 23.6978 26.4377L22.3558 25.5764C22.2207 25.4897 22.1778 25.3121 22.2583 25.1733L23.041 23.8247C23.1211 23.6867 23.2951 23.6355 23.4371 23.7082L24.8594 24.4357C25.1487 24.1961 25.4793 24.0042 25.8389 23.8719L25.9175 22.2852C25.9254 22.1254 26.0572 22 26.2171 22H27.7841ZM27 25.5C26.1716 25.5 25.5 26.1705 25.5 26.9976C25.5 27.8248 26.1716 28.4953 27 28.4953C27.8284 28.4953 28.5 27.8248 28.5 26.9976C28.5 26.1705 27.8284 25.5 27 25.5Z" fill="#3D424D"/>
</g>
</g>
</svg>
