<svg width="32" height="32" viewBox="0 0 32 32" fill="none" xmlns="http://www.w3.org/2000/svg">
<g id="applet-opportunities">
<path id="primaryFill" fill-rule="evenodd" clip-rule="evenodd" d="M16 6C15.7348 6 15.4804 6.10536 15.2929 6.29289L13.5858 8H10C9.73478 8 9.48043 8.10536 9.29289 8.29289L6.58579 11H5C3.34315 11 2 12.3431 2 14V21C2 22.6569 3.34315 24 5 24H6.79244L6.80517 24.0054C6.93788 24.0622 7.12888 24.1426 7.36539 24.2388C7.83772 24.4309 8.49494 24.6874 9.23398 24.9445C10.6684 25.4434 12.5628 26 14 26C15.6395 26 17.2658 25.0901 18.6124 24.0613C19.0515 23.7259 19.4779 23.3645 19.8849 22.9934C19.9228 22.9978 19.9614 23 20.0005 23H22C22.9516 23 23.8502 22.6887 24.4686 22.4138C24.7866 22.2725 25.0513 22.1313 25.2383 22.0245L25.2809 22H27C28.6569 22 30 20.6569 30 19V12C30 10.3431 28.6569 9 27 9H25.4142L22.7071 6.29289C22.5196 6.10536 22.2652 6 22 6H16ZM21.8469 21H22C22.5484 21 23.1498 20.8113 23.6564 20.5862C23.9009 20.4775 24.1049 20.3687 24.246 20.288C24.3163 20.2479 24.37 20.2153 24.4043 20.1939C24.4215 20.1832 24.4337 20.1754 24.4407 20.1709L24.4457 20.1677C24.6098 20.0584 24.8027 20 25 20H27C27.5523 20 28 19.5523 28 19V12C28 11.4477 27.5523 11 27 11H25C24.7348 11 24.4804 10.8946 24.2929 10.7071L21.5858 8H16.4142L14.7074 9.70683C14.707 9.70724 14.7066 9.70765 14.7062 9.70806L12.7202 11.6886L12.6241 11.7907C11.9966 12.5089 12.0254 13.602 12.7101 14.2868C13.4247 15.0014 14.5834 15.0014 15.2981 14.2868L17.2931 12.2927C17.6836 11.9024 18.3166 11.9024 18.7071 12.2929L21.9101 15.4959C23.2814 16.8672 23.5064 19.0951 22.167 20.6369C22.0644 20.755 21.9576 20.8763 21.8469 21ZM7.40614 22.0862C7.27832 22.0294 7.13986 22 7 22H5C4.44772 22 4 21.5523 4 21V14C4 13.4477 4.44772 13 5 13H7C7.26522 13 7.51957 12.8946 7.70711 12.7071L10.4142 10H11.5812L11.2968 10.2836C11.2894 10.2909 11.2822 10.2984 11.275 10.306L11.1568 10.4316C11.1499 10.4389 11.1431 10.4463 11.1365 10.4538C9.80225 11.9586 9.85531 14.2604 11.2959 15.701C12.7915 17.1966 15.2164 17.1967 16.7121 15.7011L17.9998 14.414L20.4959 16.9101C21.1985 17.6127 21.2414 18.6528 20.6572 19.3252C19.7792 20.3358 18.6258 21.5343 17.3983 22.4721C16.1374 23.4353 14.9568 24 14 24C12.9372 24 11.3316 23.5566 9.89102 23.0555C9.19256 22.8126 8.56853 22.5691 8.11899 22.3862C7.89455 22.2949 7.71446 22.2191 7.59131 22.1664C7.52976 22.1401 7.48249 22.1196 7.45109 22.1059L7.41611 22.0906L7.40614 22.0862Z" fill="#373F51"/>
</g>
</svg>
