<svg width="32" height="32" viewBox="0 0 32 32" fill="none" xmlns="http://www.w3.org/2000/svg">
<g id="communication-call">
<path id="primaryFill" fill-rule="evenodd" clip-rule="evenodd" d="M2 8.2C2 4.78029 4.78029 2 8.2 2C9.05855 2 9.89314 2.17418 10.6488 2.51357C11.2889 2.7823 11.895 3.17449 12.4004 3.66187C12.5356 3.79226 12.6314 3.9581 12.6767 4.1404L14.0584 9.69697C14.1048 9.88353 14.0965 10.0795 14.0344 10.2614C13.634 11.4338 12.8819 12.4382 11.9101 13.1646C13.2937 16.2365 15.7714 18.7055 18.8358 20.0879C19.562 19.117 20.5669 18.3657 21.7375 17.9645C21.9198 17.9021 22.1163 17.8936 22.3033 17.9401L27.8598 19.3233C28.0415 19.3685 28.2067 19.4638 28.3369 19.5983C28.826 20.1037 29.2181 20.712 29.4864 21.3512C29.8258 22.1068 30 22.9414 30 23.8C30 27.2364 27.2178 30 23.8 30C11.7636 30 2 20.2522 2 8.2ZM8.2 4C5.88486 4 4 5.88486 4 8.2C4 19.1467 12.8672 28 23.8 28C26.117 28 28 26.1281 28 23.8C28 23.2077 27.8791 22.6507 27.658 22.1619C27.6539 22.1528 27.6499 22.1436 27.6461 22.1343C27.5042 21.7938 27.3097 21.4698 27.079 21.19L22.1243 19.9566C21.2674 20.3197 20.5525 20.9768 20.1038 21.8075C19.8652 22.2493 19.336 22.4456 18.867 22.2663C14.6803 20.6662 11.3344 17.3369 9.73185 13.1321C9.55323 12.6635 9.74942 12.135 10.1906 11.8964C11.0237 11.4459 11.6804 10.7318 12.0421 9.87609L10.8101 4.92155C10.5289 4.6899 10.2054 4.49548 9.86567 4.35393C9.85643 4.35008 9.84724 4.34609 9.83812 4.34197C9.34934 4.12085 8.79226 4 8.2 4Z" fill="#373F51"/>
</g>
</svg>
